<?xml version="1.0" encoding="UTF-8"?>
<svg xmlns="http://www.w3.org/2000/svg" version="1.1" viewBox="0 0 291.7 45">
  <defs>
    <style>
      .cls-1 {
        fill: #cc5e5e;
      }

      .cls-2 {
        fill: #fff;
      }
    </style>
  </defs>
  <!-- Generator: Adobe Illustrator 28.7.1, SVG Export Plug-In . SVG Version: 1.2.0 Build 142)  -->
  <g>
    <g id="Layer_1">
      <g>
        <path class="cls-2" d="M29.1,36.2h-1.8V14.8l-8.7,21.3h-1.9L8,14.8v21.3h-1.8V11.9h2.6l8.8,22,8.9-22h2.5v24.2Z"/>
        <path class="cls-2" d="M57.8,36.2h-2.1l-3-7.8h-11.9c-.4,1.2-.9,2.5-1.4,3.9-.5,1.4-1,2.7-1.4,3.9h-1.9c.8-2.1,1.6-4.1,2.4-6.2.8-2,1.5-4,2.3-6,.8-2,1.5-4,2.3-6,.8-2,1.6-4.1,2.4-6.1h2.5l9.9,24.3ZM52.2,27l-5.6-13.5-5.3,13.5h11Z"/>
        <path class="cls-2" d="M73.9,36.6c-1.6,0-3.1-.2-4.3-.5-1.2-.3-2.3-.8-3.1-1.5s-1.5-1.4-1.9-2.3c-.4-.9-.7-1.9-.8-3.1h1.7c.2,1.1.5,2,1,2.7s1.1,1.3,1.8,1.7c.7.4,1.5.7,2.4.9.9.2,1.9.3,2.9.3s2-.1,2.9-.3c.9-.2,1.6-.6,2.2-1,.6-.4,1.1-1,1.4-1.6.3-.6.5-1.3.5-2.1s-.1-1.5-.4-2c-.3-.6-.8-1-1.4-1.4s-1.5-.8-2.6-1.1c-1.1-.3-2.4-.7-4-1-1.3-.3-2.5-.6-3.4-1-1-.4-1.7-.8-2.4-1.3s-1.1-1.1-1.4-1.7c-.3-.7-.4-1.4-.4-2.3s.2-1.8.6-2.6,1-1.5,1.7-2c.7-.6,1.6-1,2.6-1.3s2.2-.5,3.4-.5,2.4.1,3.4.4c1,.3,1.9.7,2.7,1.3.8.5,1.4,1.2,1.9,2s.8,1.7.9,2.7h-1.7c-.2-.6-.4-1.3-.8-1.8-.4-.6-.8-1-1.4-1.5-.6-.4-1.3-.7-2.1-1-.8-.2-1.7-.3-2.8-.3-2.2,0-3.8.4-4.9,1.2-1.1.8-1.7,1.9-1.7,3.3s.1,1.2.3,1.7c.2.5.6.9,1.1,1.3.5.4,1.1.7,2,1,.8.3,1.8.6,3,.8.7.1,1.4.3,2.2.5.8.2,1.5.4,2.2.6s1.4.5,2,.8c.6.3,1.2.7,1.7,1.2s.9,1,1.2,1.7c.3.7.4,1.4.4,2.3s-.2,2-.7,2.8c-.4.9-1,1.6-1.8,2.2-.8.6-1.7,1.1-2.8,1.5-1.1.3-2.2.5-3.5.5Z"/>
        <path class="cls-2" d="M101.6,11.5c1.7,0,3.2.3,4.6.9,1.4.6,2.6,1.4,3.6,2.5s1.8,2.4,2.4,3.9c.6,1.5.9,3.2.9,5.1s-.3,3.6-.8,5.1c-.6,1.5-1.3,2.9-2.4,4s-2.2,2-3.6,2.6-2.9.9-4.6.9-3.2-.3-4.6-.9c-1.4-.6-2.6-1.5-3.6-2.6-1-1.1-1.8-2.4-2.4-4-.6-1.5-.8-3.3-.8-5.2s.3-3.6.9-5.2c.6-1.5,1.4-2.8,2.4-3.9,1-1.1,2.2-1.9,3.6-2.5,1.4-.6,2.9-.9,4.6-.9ZM101.5,34.8c1.4,0,2.7-.2,3.8-.7,1.2-.5,2.2-1.2,3-2.1.9-.9,1.5-2.1,2-3.4.5-1.4.7-2.9.7-4.6s-.2-3.3-.7-4.6c-.5-1.3-1.1-2.4-2-3.4-.8-.9-1.9-1.6-3-2.1-1.2-.5-2.4-.7-3.8-.7s-2.7.2-3.9.7c-1.2.5-2.2,1.2-3,2.1s-1.5,2-2,3.4c-.5,1.3-.7,2.9-.7,4.6s.2,3.3.7,4.6,1.1,2.5,2,3.4c.8.9,1.9,1.6,3,2.1,1.2.5,2.5.7,3.8.7Z"/>
        <path class="cls-2" d="M140.2,36.2h-2.3l-14.8-22.1v22.1h-1.8V11.9h2.4l14.7,22.1V11.9h1.8v24.2Z"/>
        <path class="cls-1" d="M160.1,36.6c-1.7,0-3.3-.3-4.7-.9-1.4-.6-2.6-1.5-3.7-2.6-1-1.1-1.8-2.4-2.4-4s-.8-3.3-.8-5.2.3-3.6.8-5.2c.6-1.5,1.3-2.8,2.4-3.9,1-1.1,2.2-1.9,3.6-2.5,1.4-.6,3-.9,4.6-.9s2.6.2,3.7.5c1.2.3,2.2.8,3.1,1.4s1.6,1.3,2.2,2.2c.6.9,1,1.8,1.2,2.9h-1.9c-.1-.7-.4-1.4-.9-2-.5-.6-1-1.2-1.8-1.6-.7-.5-1.6-.8-2.5-1.1-1-.3-2-.4-3.2-.4s-2.7.2-3.9.7c-1.2.5-2.2,1.1-3,2s-1.5,2-2,3.4c-.5,1.3-.7,2.9-.7,4.6s.2,3.3.7,4.6c.5,1.4,1.1,2.5,2,3.4.8.9,1.9,1.6,3.1,2.1,1.2.5,2.5.7,3.9.7s3.7-.4,5.2-1.2c1.5-.8,2.7-1.8,3.7-3.2v-4.4h-6.7v-1.8h8.5v11.8h-1l-.8-3.2c-.6.7-1.2,1.3-1.9,1.7-.7.5-1.4.8-2.2,1.1-.8.3-1.6.5-2.4.6-.8.1-1.7.2-2.5.2Z"/>
        <path class="cls-1" d="M190.2,11.5c1.7,0,3.2.3,4.6.9,1.4.6,2.6,1.4,3.6,2.5s1.8,2.4,2.4,3.9c.6,1.5.9,3.2.9,5.1s-.3,3.6-.8,5.1c-.6,1.5-1.3,2.9-2.4,4s-2.2,2-3.6,2.6-2.9.9-4.6.9-3.2-.3-4.6-.9c-1.4-.6-2.6-1.5-3.6-2.6-1-1.1-1.8-2.4-2.4-4-.6-1.5-.8-3.3-.8-5.2s.3-3.6.9-5.2c.6-1.5,1.4-2.8,2.4-3.9,1-1.1,2.2-1.9,3.6-2.5,1.4-.6,2.9-.9,4.6-.9ZM190.2,34.8c1.4,0,2.7-.2,3.8-.7,1.2-.5,2.2-1.2,3-2.1.9-.9,1.5-2.1,2-3.4.5-1.4.7-2.9.7-4.6s-.2-3.3-.7-4.6c-.5-1.3-1.1-2.4-2-3.4-.8-.9-1.9-1.6-3-2.1-1.2-.5-2.4-.7-3.8-.7s-2.7.2-3.9.7c-1.2.5-2.2,1.2-3,2.1s-1.5,2-2,3.4c-.5,1.3-.7,2.9-.7,4.6s.2,3.3.7,4.6,1.1,2.5,2,3.4c.8.9,1.9,1.6,3,2.1,1.2.5,2.5.7,3.8.7Z"/>
        <path class="cls-1" d="M232.7,36.2h-1.8V14.8l-8.7,21.3h-1.9l-8.7-21.3v21.3h-1.8V11.9h2.6l8.8,22,8.9-22h2.5v24.2Z"/>
        <path class="cls-1" d="M259.7,36.2h-17.5V11.9h16.9v1.8h-15.1v9h14.2v1.8h-14.2v10h15.7v1.8Z"/>
        <path class="cls-1" d="M277.5,36.6c-1.6,0-3.1-.2-4.3-.5-1.2-.3-2.3-.8-3.1-1.5s-1.5-1.4-1.9-2.3c-.4-.9-.7-1.9-.8-3.1h1.7c.2,1.1.5,2,1,2.7.5.7,1.1,1.3,1.8,1.7.7.4,1.5.7,2.4.9.9.2,1.9.3,2.9.3s2-.1,2.9-.3c.9-.2,1.6-.6,2.2-1,.6-.4,1.1-1,1.4-1.6s.5-1.3.5-2.1-.1-1.5-.4-2c-.3-.6-.8-1-1.4-1.4s-1.5-.8-2.6-1.1c-1.1-.3-2.4-.7-4-1-1.3-.3-2.5-.6-3.4-1s-1.7-.8-2.4-1.3-1.1-1.1-1.4-1.7c-.3-.7-.4-1.4-.4-2.3s.2-1.8.6-2.6,1-1.5,1.7-2c.7-.6,1.6-1,2.6-1.3,1-.3,2.2-.5,3.4-.5s2.4.1,3.4.4,1.9.7,2.7,1.3,1.4,1.2,1.9,2c.5.8.8,1.7.9,2.7h-1.7c-.2-.6-.4-1.3-.8-1.8s-.8-1-1.4-1.5c-.6-.4-1.3-.7-2.1-1-.8-.2-1.7-.3-2.8-.3-2.2,0-3.8.4-4.9,1.2-1.1.8-1.7,1.9-1.7,3.3s.1,1.2.3,1.7c.2.5.6.9,1.1,1.3.5.4,1.1.7,2,1,.8.3,1.8.6,3,.8.7.1,1.4.3,2.2.5.8.2,1.5.4,2.2.6.7.2,1.4.5,2,.8.7.3,1.2.7,1.7,1.2.5.5.9,1,1.2,1.7.3.7.4,1.4.4,2.3s-.2,2-.7,2.8-1,1.6-1.8,2.2c-.8.6-1.7,1.1-2.8,1.5-1.1.3-2.2.5-3.5.5Z"/>
      </g>
    </g>
  </g>
</svg>